<svg width="224" height="30" viewBox="0 0 224 30" fill="none" xmlns="http://www.w3.org/2000/svg">
<path fill-rule="evenodd" clip-rule="evenodd" d="M38.7348 18.0462C39.112 16.1077 38.8762 14.5846 38.0511 13.4769C37.2259 12.3692 35.8585 11.8154 33.9253 11.8154C32.758 11.7996 31.6032 12.0525 30.554 12.5539C29.5399 13.0353 28.6646 13.7572 28.0079 14.6539C27.3172 15.5777 26.8497 16.6429 26.6405 17.7692C26.4283 18.9462 26.4754 19.9615 26.8055 20.8615C27.1426 21.7281 27.7756 22.4538 28.5972 22.9154C29.446 23.4 30.5069 23.6308 31.78 23.6308C32.8169 23.6448 33.8477 23.4728 34.8212 23.1231C35.7462 22.7663 36.5941 22.2417 37.3202 21.5769L35.6699 19.5923C35.2345 19.9603 34.7408 20.2564 34.2083 20.4692C33.7229 20.6679 33.2019 20.7699 32.6758 20.7692C32.0911 20.8044 31.5156 20.6138 31.0727 20.2385C30.6502 19.845 30.3972 19.3085 30.3654 18.7385H38.5933C38.6543 18.5106 38.7015 18.2795 38.7348 18.0462ZM34.9155 15.0923C35.2456 15.5077 35.3399 16.0385 35.222 16.7077H30.6719C30.8904 16.0778 31.282 15.5189 31.8035 15.0923C32.2576 14.6973 32.8464 14.4832 33.4538 14.4923C34.1139 14.4923 34.5855 14.6769 34.9155 15.0923Z" fill="white"/>
<path fill-rule="evenodd" clip-rule="evenodd" d="M60.5422 12.9923C61.1552 13.7769 61.3438 14.8615 61.0845 16.2231L59.7171 23.5154H55.8271L56.9823 17.3077C57.1238 16.6615 57.053 16.1308 56.7701 15.7615C56.4872 15.3923 56.0393 15.1846 55.4499 15.1846C54.7861 15.2023 54.154 15.4663 53.6817 15.9231C53.176 16.4347 52.8463 17.0883 52.7387 17.7923L51.6542 23.5154H47.7642L48.9194 17.3077C49.0609 16.6615 48.9902 16.1308 48.7072 15.7615C48.4243 15.3923 47.9764 15.1846 47.387 15.1846C46.7233 15.2023 46.0912 15.4663 45.6188 15.9231C45.0978 16.4268 44.7585 17.083 44.6522 17.7923L43.5678 23.5154H39.7014L41.8939 11.9308H45.7603L45.3831 13.8461C45.8897 13.2089 46.5337 12.6889 47.2691 12.3231C47.9981 11.958 48.8081 11.7757 49.6267 11.7923C50.5854 11.7923 51.3634 12.0231 51.9607 12.4846C52.5748 12.944 52.9741 13.626 53.0687 14.3769C53.5549 13.5725 54.2452 12.9048 55.0727 12.4385C55.8706 11.9987 56.774 11.7757 57.6896 11.7923C58.9627 11.7923 59.9293 12.1846 60.5422 12.9923Z" fill="white"/>
<path fill-rule="evenodd" clip-rule="evenodd" d="M69.1238 8.65386C69.2505 8.14142 69.1382 7.60036 68.8173 7.17694C68.4741 6.79442 67.9688 6.58976 67.4499 6.62309C66.8725 6.61609 66.3118 6.81268 65.8703 7.17694C65.4167 7.55454 65.1157 8.07829 65.0216 8.65386C64.8846 9.15869 64.9981 9.69719 65.3281 10.1077C65.6592 10.4951 66.1564 10.7086 66.6719 10.6846C67.2589 10.6826 67.8265 10.4784 68.275 10.1077C68.7149 9.72871 69.0135 9.21724 69.1238 8.65386ZM68.4165 11.9308H64.5501L62.3575 23.5154H66.2239L68.4165 11.9308Z" fill="white"/>
<path fill-rule="evenodd" clip-rule="evenodd" d="M76.998 22.9154C76.4785 23.1585 75.9329 23.3443 75.3713 23.4692C74.7923 23.6065 74.1988 23.6763 73.6031 23.6769C72.4479 23.6769 71.5756 23.3538 70.9626 22.7077C70.3497 22.0615 70.1846 21.1385 70.3968 19.9846L71.3399 15.0231H69.7131L70.1846 12.4846H71.8349L72.4243 9.27692H76.2907L75.7013 12.4846H78.7426L78.2711 15.0231H75.2063L74.3811 19.3846C74.2397 20.1923 74.499 20.6077 75.1827 20.6077C75.7295 20.5741 76.2652 20.4411 76.7623 20.2154L76.998 22.9154Z" fill="white"/>
<path fill-rule="evenodd" clip-rule="evenodd" d="M90.6719 15.9692C90.9077 14.6538 90.6483 13.6154 89.8703 12.9C89.1159 12.1615 87.9136 11.7923 86.2633 11.7923C85.3195 11.7881 84.3783 11.8887 83.4578 12.0923C82.4488 12.3318 81.4628 12.656 80.5108 13.0615L81.1002 15.6231C81.7459 15.3347 82.4166 15.1031 83.1041 14.9308C83.6657 14.7837 84.2439 14.7062 84.8252 14.7C85.556 14.7 86.0747 14.8385 86.4047 15.1385C86.7348 15.4385 86.8527 15.8769 86.7348 16.4308V16.5692H83.6699C82.2083 16.5692 81.0295 16.8923 80.1336 17.4923C79.2485 18.093 78.6457 19.0154 78.4597 20.0538C78.2711 21.1385 78.4362 22.0154 79.0491 22.6846C79.6621 23.3538 80.2515 23.6769 81.831 23.6769C83.4106 23.6769 84.7073 23.1923 85.6739 22.2L85.4145 23.5154H89.2338L90.6719 15.9692ZM86.169 19.5923C85.9491 20.0521 85.5859 20.4319 85.1316 20.6769C84.6437 20.9506 84.0908 21.0939 83.5285 21.0923C83.127 21.1239 82.729 20.9996 82.4204 20.7461C82.1698 20.4879 82.0799 20.118 82.1847 19.7769C82.3261 18.9923 82.9391 18.6 84.0472 18.6H86.3576L86.169 19.5923Z" fill="white"/>
<path fill-rule="evenodd" clip-rule="evenodd" d="M104.77 12.9923C105.407 13.7769 105.595 14.8615 105.336 16.2231L103.945 23.5154H100.079L101.257 17.3077C101.375 16.6615 101.305 16.1308 100.998 15.7615C100.692 15.3923 100.267 15.1846 99.6542 15.1846C99.0318 15.1936 98.4318 15.4138 97.9568 15.8077C97.4462 16.2164 97.0826 16.7744 96.9195 17.4L95.7642 23.5154H91.8743L94.0668 11.9308H97.9568L97.6031 13.8231C98.1131 13.1799 98.7662 12.659 99.5128 12.3C100.256 11.953 101.071 11.7792 101.894 11.7923C103.191 11.7923 104.157 12.1846 104.77 12.9923Z" fill="white"/>
<path fill-rule="evenodd" clip-rule="evenodd" d="M119.411 14.6308C119.06 13.7446 118.4 13.0086 117.548 12.5538C116.652 12.0462 115.568 11.8154 114.295 11.8154C113.074 11.7939 111.864 12.0465 110.758 12.5538C109.715 13.0192 108.807 13.7333 108.118 14.6308C107.402 15.5256 106.924 16.5801 106.727 17.7C106.515 18.9 106.562 19.9385 106.939 20.8154C107.289 21.7016 107.949 22.4375 108.802 22.8923C109.697 23.4 110.758 23.6308 112.055 23.6308C113.268 23.6521 114.47 23.3994 115.568 22.8923C116.618 22.4277 117.534 21.7138 118.232 20.8154C118.955 19.9046 119.44 18.8354 119.646 17.7C119.859 16.5462 119.788 15.5077 119.411 14.6308ZM110.64 17.7462C110.751 16.9601 111.134 16.235 111.725 15.6923C112.248 15.1747 112.961 14.8838 113.705 14.8846C114.376 14.8468 115.019 15.1526 115.403 15.6923C115.78 16.2 115.874 16.8923 115.733 17.7462C115.604 18.5445 115.215 19.2809 114.625 19.8462C114.092 20.361 113.369 20.6439 112.621 20.6308C111.866 20.6308 111.277 20.3769 110.923 19.8462C110.57 19.3154 110.475 18.6231 110.64 17.7462Z" fill="white"/>
<path fill-rule="evenodd" clip-rule="evenodd" d="M0.801572 18.8539L0 23.5385H10.5619C8.46365 23.5385 8.95874 18.8539 5.68173 18.8539H0.801572Z" fill="white"/>
<path fill-rule="evenodd" clip-rule="evenodd" d="M19.6621 13.6385C22.5182 12.5449 24.3602 9.80805 24.2593 6.80769C24.1179 2.95385 20.6758 0 16.7387 0H4.03142L3.22985 4.70769H13.7682V3.43846L17.6817 7.26923L13.7682 11.1V9.41538H2.42828L1.62671 14.1231H9.5717C11.396 14.1301 13.0624 15.1373 13.886 16.7308L16.2908 21.4154C16.9705 22.7153 18.3352 23.5347 19.8271 23.5385H25.0845L19.6621 13.6385Z" fill="white"/>
<path opacity="0.9" d="M131.066 22.8384V12.817H132.427L137.69 20.6851V12.817H138.962V22.8384H137.602L132.338 14.9634V22.8384H131.066ZM146.01 20.5005L147.281 20.6578C147.081 21.4006 146.709 21.9771 146.167 22.3873C145.625 22.7974 144.932 23.0025 144.089 23.0025C143.027 23.0025 142.184 22.6767 141.56 22.025C140.94 21.3687 140.63 20.4504 140.63 19.2701C140.63 18.0487 140.944 17.1008 141.573 16.4263C142.202 15.7519 143.018 15.4146 144.021 15.4146C144.991 15.4146 145.784 15.745 146.399 16.4058C147.015 17.0666 147.322 17.9963 147.322 19.1949C147.322 19.2678 147.32 19.3772 147.315 19.523H141.901C141.947 20.3205 142.173 20.9312 142.578 21.355C142.984 21.7789 143.49 21.9908 144.096 21.9908C144.547 21.9908 144.932 21.8723 145.251 21.6353C145.57 21.3983 145.823 21.0201 146.01 20.5005ZM141.97 18.5113H146.023C145.969 17.9006 145.814 17.4426 145.559 17.1373C145.167 16.6633 144.659 16.4263 144.034 16.4263C143.469 16.4263 142.993 16.6155 142.605 16.9937C142.223 17.372 142.011 17.8778 141.97 18.5113ZM151.52 21.7379L151.697 22.8248C151.351 22.8977 151.041 22.9341 150.768 22.9341C150.321 22.9341 149.975 22.8635 149.729 22.7222C149.482 22.581 149.309 22.3964 149.209 22.1685C149.109 21.9361 149.059 21.4507 149.059 20.7125V16.5357H148.156V15.5787H149.059V13.7808L150.282 13.0425V15.5787H151.52V16.5357H150.282V20.7808C150.282 21.1317 150.303 21.3573 150.344 21.4576C150.389 21.5578 150.46 21.6376 150.556 21.6968C150.656 21.7561 150.797 21.7857 150.979 21.7857C151.116 21.7857 151.296 21.7698 151.52 21.7379ZM154.069 22.8384L151.848 15.5787H153.119L154.274 19.7691L154.705 21.3277C154.723 21.2502 154.849 20.7512 155.081 19.8306L156.236 15.5787H157.501L158.588 19.7896L158.95 21.1773L159.367 19.7759L160.611 15.5787H161.808L159.538 22.8384H158.26L157.104 18.4908L156.824 17.2535L155.354 22.8384H154.069ZM162.389 19.2086C162.389 17.8642 162.762 16.8684 163.51 16.2213C164.134 15.6835 164.895 15.4146 165.793 15.4146C166.791 15.4146 167.607 15.7427 168.24 16.399C168.874 17.0507 169.19 17.953 169.19 19.106C169.19 20.0403 169.049 20.7763 168.767 21.314C168.489 21.8472 168.081 22.2619 167.543 22.5582C167.01 22.8544 166.426 23.0025 165.793 23.0025C164.777 23.0025 163.954 22.6767 163.325 22.025C162.701 21.3733 162.389 20.4345 162.389 19.2086ZM163.653 19.2086C163.653 20.1382 163.856 20.8355 164.262 21.3004C164.667 21.7606 165.178 21.9908 165.793 21.9908C166.404 21.9908 166.912 21.7584 167.317 21.2935C167.723 20.8287 167.926 20.12 167.926 19.1675C167.926 18.2698 167.721 17.5907 167.311 17.1304C166.905 16.6656 166.399 16.4332 165.793 16.4332C165.178 16.4332 164.667 16.6633 164.262 17.1236C163.856 17.5839 163.653 18.2789 163.653 19.2086ZM170.626 22.8384V15.5787H171.733V16.6793C172.016 16.1643 172.276 15.8248 172.513 15.6607C172.754 15.4966 173.019 15.4146 173.306 15.4146C173.72 15.4146 174.142 15.5468 174.57 15.8111L174.146 16.9527C173.846 16.775 173.545 16.6861 173.244 16.6861C172.975 16.6861 172.734 16.7681 172.52 16.9322C172.305 17.0917 172.153 17.315 172.062 17.6021C171.925 18.0396 171.856 18.5181 171.856 19.0377V22.8384H170.626ZM175.309 22.8384V12.817H176.539V18.5318L179.451 15.5787H181.044L178.269 18.272L181.324 22.8384H179.807L177.407 19.1265L176.539 19.9605V22.8384H175.309ZM188.105 22.8384L185.446 12.817H186.807L188.331 19.3863C188.495 20.0744 188.636 20.758 188.755 21.4371C189.01 20.3661 189.16 19.7486 189.206 19.5845L191.113 12.817H192.713L194.148 17.8892C194.508 19.147 194.768 20.3297 194.928 21.4371C195.055 20.8036 195.222 20.0767 195.427 19.2564L196.999 12.817H198.332L195.584 22.8384H194.306L192.193 15.2027C192.016 14.5647 191.911 14.1727 191.879 14.0269C191.774 14.4872 191.676 14.8791 191.585 15.2027L189.459 22.8384H188.105ZM203.637 21.9429C203.181 22.3303 202.741 22.6037 202.317 22.7632C201.898 22.9227 201.447 23.0025 200.964 23.0025C200.166 23.0025 199.553 22.8088 199.125 22.4214C198.697 22.0295 198.482 21.5305 198.482 20.9244C198.482 20.5689 198.562 20.2453 198.722 19.9537C198.886 19.6575 199.098 19.4205 199.357 19.2427C199.622 19.065 199.918 18.9306 200.246 18.8394C200.488 18.7756 200.852 18.7141 201.34 18.6548C202.333 18.5364 203.065 18.3951 203.534 18.231C203.539 18.0624 203.541 17.9553 203.541 17.9097C203.541 17.4084 203.425 17.0552 203.192 16.8502C202.878 16.5722 202.411 16.4332 201.791 16.4332C201.212 16.4332 200.784 16.5357 200.506 16.7408C200.232 16.9413 200.03 17.2991 199.897 17.814L198.694 17.65C198.804 17.135 198.984 16.7203 199.234 16.4058C199.485 16.0868 199.847 15.843 200.321 15.6744C200.795 15.5012 201.344 15.4146 201.969 15.4146C202.589 15.4146 203.092 15.4875 203.479 15.6334C203.867 15.7792 204.152 15.9638 204.334 16.1871C204.516 16.4058 204.644 16.6838 204.717 17.0211C204.758 17.2307 204.778 17.6089 204.778 18.1558V19.7964C204.778 20.9403 204.803 21.6649 204.854 21.9703C204.908 22.2711 205.013 22.5604 205.168 22.8384H203.883C203.755 22.5832 203.673 22.2847 203.637 21.9429ZM203.534 19.1949C203.088 19.3772 202.418 19.5321 201.524 19.6597C201.019 19.7326 200.661 19.8147 200.451 19.9058C200.242 19.997 200.08 20.1314 199.966 20.3091C199.852 20.4823 199.795 20.676 199.795 20.8902C199.795 21.2183 199.918 21.4918 200.164 21.7105C200.415 21.9293 200.779 22.0386 201.258 22.0386C201.732 22.0386 202.153 21.9361 202.522 21.731C202.892 21.5214 203.163 21.2366 203.336 20.8765C203.468 20.5985 203.534 20.1884 203.534 19.6461V19.1949ZM206.665 22.8384V12.817H207.896V22.8384H206.665ZM209.782 22.8384V12.817H211.013V22.8384H209.782ZM217.896 20.5005L219.168 20.6578C218.967 21.4006 218.596 21.9771 218.054 22.3873C217.511 22.7974 216.819 23.0025 215.976 23.0025C214.914 23.0025 214.071 22.6767 213.446 22.025C212.826 21.3687 212.517 20.4504 212.517 19.2701C212.517 18.0487 212.831 17.1008 213.46 16.4263C214.089 15.7519 214.905 15.4146 215.907 15.4146C216.878 15.4146 217.671 15.745 218.286 16.4058C218.901 17.0666 219.209 17.9963 219.209 19.1949C219.209 19.2678 219.207 19.3772 219.202 19.523H213.788C213.834 20.3205 214.059 20.9312 214.465 21.355C214.87 21.7789 215.376 21.9908 215.982 21.9908C216.434 21.9908 216.819 21.8723 217.138 21.6353C217.457 21.3983 217.71 21.0201 217.896 20.5005ZM213.856 18.5113H217.91C217.855 17.9006 217.701 17.4426 217.445 17.1373C217.053 16.6633 216.545 16.4263 215.921 16.4263C215.356 16.4263 214.88 16.6155 214.492 16.9937C214.109 17.372 213.897 17.8778 213.856 18.5113ZM223.406 21.7379L223.584 22.8248C223.238 22.8977 222.928 22.9341 222.654 22.9341C222.208 22.9341 221.861 22.8635 221.615 22.7222C221.369 22.581 221.196 22.3964 221.096 22.1685C220.995 21.9361 220.945 21.4507 220.945 20.7125V16.5357H220.043V15.5787H220.945V13.7808L222.169 13.0425V15.5787H223.406V16.5357H222.169V20.7808C222.169 21.1317 222.189 21.3573 222.23 21.4576C222.276 21.5578 222.347 21.6376 222.442 21.6968C222.543 21.7561 222.684 21.7857 222.866 21.7857C223.003 21.7857 223.183 21.7698 223.406 21.7379Z" fill="white"/>
</svg>
