<svg xmlns="http://www.w3.org/2000/svg" width="552" height="320">
    <style>
        line, path, circle, rect, polygon{stroke:black;stroke-width:2;stroke-opacity:1;fill-opacity:1;stroke-linecap:round;stroke-linejoin:miter;}text{font-family:Iosevka Fixed, monospace;font-size:14px;}rect.backdrop{stroke:none;fill:white;}.broken{stroke-dasharray:8;}.filled{fill:black;}.bg_filled{fill:white;}.nofill{fill:white;}.end_marked_arrow{marker-end:url(#arrow);}.start_marked_arrow{marker-start:url(#arrow);}.end_marked_diamond{marker-end:url(#diamond);}.start_marked_diamond{marker-start:url(#diamond);}.end_marked_circle{marker-end:url(#circle);}.start_marked_circle{marker-start:url(#circle);}.end_marked_open_circle{marker-end:url(#open_circle);}.start_marked_open_circle{marker-start:url(#open_circle);}.end_marked_big_open_circle{marker-end:url(#big_open_circle);}.start_marked_big_open_circle{marker-start:url(#big_open_circle);}
        <!--separator-->
        
    </style>
    <defs>
        <marker id="arrow" viewBox="-2 -2 8 8" refX="4" refY="2" markerWidth="7" markerHeight="7" orient="auto-start-reverse">
            <polygon points="0,0 0,4 4,2 0,0"></polygon>
        </marker>
        <marker id="diamond" viewBox="-2 -2 8 8" refX="4" refY="2" markerWidth="7" markerHeight="7" orient="auto-start-reverse">
            <polygon points="0,2 2,0 4,2 2,4 0,2"></polygon>
        </marker>
        <marker id="circle" viewBox="0 0 8 8" refX="4" refY="4" markerWidth="7" markerHeight="7" orient="auto-start-reverse">
            <circle cx="4" cy="4" r="2" class="filled"></circle>
        </marker>
        <marker id="open_circle" viewBox="0 0 8 8" refX="4" refY="4" markerWidth="7" markerHeight="7" orient="auto-start-reverse">
            <circle cx="4" cy="4" r="2" class="bg_filled"></circle>
        </marker>
        <marker id="big_open_circle" viewBox="0 0 8 8" refX="4" refY="4" markerWidth="7" markerHeight="7" orient="auto-start-reverse">
            <circle cx="4" cy="4" r="3" class="bg_filled"></circle>
        </marker>
    </defs>
    <rect class="backdrop" x="0" y="0" width="552" height="320"></rect>
    <rect x="4" y="8" width="536" height="176" class="solid nofill" rx="0"></rect>
    <text x="218" y="44" >Neighborhood</text>
    <text x="322" y="44" >0</text>
    <text x="66" y="76" >Validator</text>
    <text x="146" y="76" >1</text>
    <text x="394" y="76" >Validator</text>
    <text x="474" y="76" >2</text>
    <rect x="28" y="232" width="168" height="64" class="solid nofill" rx="0"></rect>
    <text x="58" y="268" >Neighborhood</text>
    <text x="162" y="268" >1</text>
    <rect x="348" y="232" width="168" height="64" class="solid nofill" rx="0"></rect>
    <text x="378" y="268" >Neighborhood</text>
    <text x="482" y="268" >2</text>
    <g>
        <line x1="36" y1="40" x2="180" y2="40" class="solid"></line>
        <line x1="36" y1="40" x2="36" y2="104" class="solid"></line>
        <line x1="180" y1="40" x2="180" y2="104" class="solid"></line>
        <line x1="180" y1="56" x2="352" y2="56" class="solid"></line>
        <polygon points="352,52 360,56 352,60" class="filled"></polygon>
        <line x1="36" y1="104" x2="180" y2="104" class="solid"></line>
        <line x1="108" y1="104" x2="108" y2="176" class="solid"></line>
        <line x1="124" y1="104" x2="124" y2="136" class="solid"></line>
        <line x1="124" y1="136" x2="364" y2="136" class="solid"></line>
        <line x1="364" y1="136" x2="364" y2="176" class="solid"></line>
    </g>
    <g>
        <line x1="364" y1="40" x2="508" y2="40" class="solid"></line>
        <line x1="364" y1="40" x2="364" y2="104" class="solid"></line>
        <line x1="508" y1="40" x2="508" y2="104" class="solid"></line>
        <line x1="364" y1="104" x2="508" y2="104" class="solid"></line>
        <line x1="420" y1="104" x2="420" y2="152" class="solid"></line>
        <line x1="436" y1="104" x2="436" y2="176" class="solid"></line>
        <line x1="164" y1="152" x2="420" y2="152" class="solid"></line>
        <line x1="164" y1="152" x2="164" y2="176" class="solid"></line>
        <polygon points="192,84 184,88 192,92" class="filled"></polygon>
        <line x1="192" y1="88" x2="364" y2="88" class="solid"></line>
    </g>
    <g>
        <line x1="108" y1="192" x2="108" y2="212" class="solid"></line>
        <polygon points="104,212 112,212 108,224" class="filled"></polygon>
    </g>
    <g>
        <line x1="164" y1="192" x2="164" y2="212" class="solid"></line>
        <polygon points="160,212 168,212 164,224" class="filled"></polygon>
    </g>
    <g>
        <line x1="364" y1="192" x2="364" y2="212" class="solid"></line>
        <polygon points="360,212 368,212 364,224" class="filled"></polygon>
    </g>
    <g>
        <line x1="436" y1="192" x2="436" y2="212" class="solid"></line>
        <polygon points="432,212 440,212 436,224" class="filled"></polygon>
    </g>
</svg>