<svg xmlns="http://www.w3.org/2000/svg" width="776" height="208">
    <style>
        line, path, circle, rect, polygon{stroke:black;stroke-width:2;stroke-opacity:1;fill-opacity:1;stroke-linecap:round;stroke-linejoin:miter;}text{font-family:Iosevka Fixed, monospace;font-size:14px;}rect.backdrop{stroke:none;fill:white;}.broken{stroke-dasharray:8;}.filled{fill:black;}.bg_filled{fill:white;}.nofill{fill:white;}.end_marked_arrow{marker-end:url(#arrow);}.start_marked_arrow{marker-start:url(#arrow);}.end_marked_diamond{marker-end:url(#diamond);}.start_marked_diamond{marker-start:url(#diamond);}.end_marked_circle{marker-end:url(#circle);}.start_marked_circle{marker-start:url(#circle);}.end_marked_open_circle{marker-end:url(#open_circle);}.start_marked_open_circle{marker-start:url(#open_circle);}.end_marked_big_open_circle{marker-end:url(#big_open_circle);}.start_marked_big_open_circle{marker-start:url(#big_open_circle);}
        <!--separator-->
        
    </style>
    <defs>
        <marker id="arrow" viewBox="-2 -2 8 8" refX="4" refY="2" markerWidth="7" markerHeight="7" orient="auto-start-reverse">
            <polygon points="0,0 0,4 4,2 0,0"></polygon>
        </marker>
        <marker id="diamond" viewBox="-2 -2 8 8" refX="4" refY="2" markerWidth="7" markerHeight="7" orient="auto-start-reverse">
            <polygon points="0,2 2,0 4,2 2,4 0,2"></polygon>
        </marker>
        <marker id="circle" viewBox="0 0 8 8" refX="4" refY="4" markerWidth="7" markerHeight="7" orient="auto-start-reverse">
            <circle cx="4" cy="4" r="2" class="filled"></circle>
        </marker>
        <marker id="open_circle" viewBox="0 0 8 8" refX="4" refY="4" markerWidth="7" markerHeight="7" orient="auto-start-reverse">
            <circle cx="4" cy="4" r="2" class="bg_filled"></circle>
        </marker>
        <marker id="big_open_circle" viewBox="0 0 8 8" refX="4" refY="4" markerWidth="7" markerHeight="7" orient="auto-start-reverse">
            <circle cx="4" cy="4" r="3" class="bg_filled"></circle>
        </marker>
    </defs>
    <rect class="backdrop" x="0" y="0" width="776" height="208"></rect>
    <text x="514" y="12" >validator</text>
    <text x="594" y="12" >action</text>
    <line x1="512" y1="24" x2="640" y2="24" class="solid"></line>
    <text x="138" y="44" >L1</text>
    <text x="138" y="76" >L2</text>
    <text x="138" y="108" >L3</text>
    <text x="138" y="140" >L4</text>
    <text x="138" y="172" >L5</text>
    <text x="314" y="44" >E1</text>
    <line x1="272" y1="48" x2="264" y2="64" class="solid"></line>
    <text x="250" y="76" >E2</text>
    <line x1="376" y1="48" x2="384" y2="64" class="solid"></line>
    <text x="514" y="60" >vote</text>
    <path d="M 552,48 A 16,16 0,0,0 552,64" class="nofill"></path>
    <text x="554" y="60" >E1</text>
    <path d="M 568,48 A 16,16 0,0,1 568,64" class="nofill"></path>
    <text x="394" y="76" >x</text>
    <line x1="240" y1="80" x2="232" y2="96" class="solid"></line>
    <line x1="272" y1="80" x2="280" y2="96" class="solid"></line>
    <line x1="376" y1="80" x2="368" y2="96" class="solid"></line>
    <text x="362" y="108" >E3&#39;</text>
    <line x1="360" y1="112" x2="352" y2="128" class="solid"></line>
    <line x1="376" y1="112" x2="384" y2="128" class="solid"></line>
    <text x="346" y="140" >x</text>
    <text x="386" y="140" >x</text>
    <line x1="348" y1="144" x2="348" y2="160" class="solid"></line>
    <line x1="388" y1="144" x2="388" y2="160" class="solid"></line>
    <text x="338" y="172" >xx</text>
    <text x="378" y="172" >xx</text>
    <line x1="416" y1="80" x2="424" y2="96" class="solid"></line>
    <text x="514" y="92" >vote</text>
    <path d="M 552,80 A 16,16 0,0,0 552,96" class="nofill"></path>
    <text x="554" y="92" >E2</text>
    <path d="M 568,80 A 16,16 0,0,1 568,96" class="nofill"></path>
    <text x="18" y="108" >time</text>
    <text x="210" y="108" >E3</text>
    <line x1="208" y1="112" x2="200" y2="128" class="solid"></line>
    <line x1="224" y1="112" x2="232" y2="128" class="solid"></line>
    <text x="234" y="140" >x</text>
    <line x1="236" y1="144" x2="236" y2="160" class="solid"></line>
    <text x="226" y="172" >xx</text>
    <text x="290" y="108" >x</text>
    <text x="434" y="108" >x</text>
    <line x1="432" y1="112" x2="424" y2="128" class="solid"></line>
    <text x="418" y="140" >x</text>
    <line x1="420" y1="144" x2="420" y2="160" class="solid"></line>
    <text x="410" y="172" >xx</text>
    <line x1="280" y1="112" x2="272" y2="128" class="solid"></line>
    <text x="258" y="140" >E4</text>
    <line x1="260" y1="144" x2="260" y2="160" class="solid"></line>
    <text x="258" y="172" >xx</text>
    <line x1="304" y1="112" x2="312" y2="128" class="solid"></line>
    <text x="314" y="140" >x</text>
    <line x1="316" y1="144" x2="316" y2="160" class="solid"></line>
    <text x="306" y="172" >E5</text>
    <line x1="448" y1="112" x2="456" y2="128" class="solid"></line>
    <text x="458" y="140" >x</text>
    <line x1="460" y1="144" x2="460" y2="160" class="solid"></line>
    <text x="450" y="172" >xx</text>
    <text x="514" y="124" >slash</text>
    <path d="M 560,112 A 16,16 0,0,0 560,128" class="nofill"></path>
    <text x="562" y="124" >E3</text>
    <path d="M 576,112 A 16,16 0,0,1 576,128" class="nofill"></path>
    <text x="186" y="140" >x</text>
    <line x1="188" y1="144" x2="188" y2="160" class="solid"></line>
    <text x="186" y="172" >xx</text>
    <text x="514" y="156" >vote</text>
    <path d="M 552,144 A 16,16 0,0,0 552,160" class="nofill"></path>
    <text x="554" y="156" >E4</text>
    <path d="M 568,144 A 16,16 0,0,1 568,160" class="nofill"></path>
    <text x="514" y="188" >hang</text>
    <text x="554" y="188" >on</text>
    <text x="578" y="188" >to</text>
    <text x="602" y="188" >E4</text>
    <text x="626" y="188" >and</text>
    <text x="658" y="188" >E5</text>
    <text x="682" y="188" >for</text>
    <text x="714" y="188" >more...</text>
    <g>
        <line x1="124" y1="24" x2="164" y2="24" class="solid"></line>
        <line x1="124" y1="24" x2="124" y2="184" class="solid"></line>
        <line x1="164" y1="24" x2="164" y2="184" class="solid"></line>
        <line x1="124" y1="56" x2="164" y2="56" class="solid"></line>
        <line x1="124" y1="88" x2="164" y2="88" class="solid"></line>
        <line x1="124" y1="120" x2="164" y2="120" class="solid"></line>
        <line x1="124" y1="152" x2="164" y2="152" class="solid"></line>
        <line x1="124" y1="184" x2="164" y2="184" class="solid"></line>
    </g>
    <g>
        <line x1="76" y1="32" x2="76" y2="164" class="solid"></line>
        <polygon points="72,164 80,164 76,176" class="filled"></polygon>
    </g>
</svg>