<svg xmlns="http://www.w3.org/2000/svg" width="104" height="224">
    <style>
        line, path, circle, rect, polygon{stroke:black;stroke-width:2;stroke-opacity:1;fill-opacity:1;stroke-linecap:round;stroke-linejoin:miter;}text{font-family:Iosevka Fixed, monospace;font-size:14px;}rect.backdrop{stroke:none;fill:white;}.broken{stroke-dasharray:8;}.filled{fill:black;}.bg_filled{fill:white;}.nofill{fill:white;}.end_marked_arrow{marker-end:url(#arrow);}.start_marked_arrow{marker-start:url(#arrow);}.end_marked_diamond{marker-end:url(#diamond);}.start_marked_diamond{marker-start:url(#diamond);}.end_marked_circle{marker-end:url(#circle);}.start_marked_circle{marker-start:url(#circle);}.end_marked_open_circle{marker-end:url(#open_circle);}.start_marked_open_circle{marker-start:url(#open_circle);}.end_marked_big_open_circle{marker-end:url(#big_open_circle);}.start_marked_big_open_circle{marker-start:url(#big_open_circle);}
        <!--separator-->
        
    </style>
    <defs>
        <marker id="arrow" viewBox="-2 -2 8 8" refX="4" refY="2" markerWidth="7" markerHeight="7" orient="auto-start-reverse">
            <polygon points="0,0 0,4 4,2 0,0"></polygon>
        </marker>
        <marker id="diamond" viewBox="-2 -2 8 8" refX="4" refY="2" markerWidth="7" markerHeight="7" orient="auto-start-reverse">
            <polygon points="0,2 2,0 4,2 2,4 0,2"></polygon>
        </marker>
        <marker id="circle" viewBox="0 0 8 8" refX="4" refY="4" markerWidth="7" markerHeight="7" orient="auto-start-reverse">
            <circle cx="4" cy="4" r="2" class="filled"></circle>
        </marker>
        <marker id="open_circle" viewBox="0 0 8 8" refX="4" refY="4" markerWidth="7" markerHeight="7" orient="auto-start-reverse">
            <circle cx="4" cy="4" r="2" class="bg_filled"></circle>
        </marker>
        <marker id="big_open_circle" viewBox="0 0 8 8" refX="4" refY="4" markerWidth="7" markerHeight="7" orient="auto-start-reverse">
            <circle cx="4" cy="4" r="3" class="bg_filled"></circle>
        </marker>
    </defs>
    <rect class="backdrop" x="0" y="0" width="104" height="224"></rect>
    <text x="42" y="12" >1</text>
    <line x1="44" y1="16" x2="44" y2="32" class="solid"></line>
    <line x1="48" y1="16" x2="64" y2="48" class="solid"></line>
    <text x="42" y="44" >2</text>
    <line x1="40" y1="48" x2="24" y2="80" class="solid"></line>
    <line x1="44" y1="48" x2="44" y2="96" class="solid"></line>
    <text x="66" y="60" >|</text>
    <text x="66" y="76" >3</text>
    <text x="18" y="92" >|</text>
    <line x1="68" y1="80" x2="68" y2="160" class="solid"></line>
    <line x1="72" y1="80" x2="88" y2="112" class="solid"></line>
    <line x1="20" y1="96" x2="20" y2="128" class="solid"></line>
    <text x="42" y="108" >4</text>
    <text x="90" y="124" >|</text>
    <text x="18" y="140" >5</text>
    <line x1="92" y1="128" x2="92" y2="192" class="solid"></line>
    <text x="66" y="172" >6</text>
    <text x="90" y="204" >7</text>
</svg>