<svg xmlns="http://www.w3.org/2000/svg" width="704" height="320">
    <style>
        line, path, circle, rect, polygon{stroke:black;stroke-width:2;stroke-opacity:1;fill-opacity:1;stroke-linecap:round;stroke-linejoin:miter;}text{font-family:Iosevka Fixed, monospace;font-size:14px;}rect.backdrop{stroke:none;fill:white;}.broken{stroke-dasharray:8;}.filled{fill:black;}.bg_filled{fill:white;}.nofill{fill:white;}.end_marked_arrow{marker-end:url(#arrow);}.start_marked_arrow{marker-start:url(#arrow);}.end_marked_diamond{marker-end:url(#diamond);}.start_marked_diamond{marker-start:url(#diamond);}.end_marked_circle{marker-end:url(#circle);}.start_marked_circle{marker-start:url(#circle);}.end_marked_open_circle{marker-end:url(#open_circle);}.start_marked_open_circle{marker-start:url(#open_circle);}.end_marked_big_open_circle{marker-end:url(#big_open_circle);}.start_marked_big_open_circle{marker-start:url(#big_open_circle);}
        <!--separator-->
        
    </style>
    <defs>
        <marker id="arrow" viewBox="-2 -2 8 8" refX="4" refY="2" markerWidth="7" markerHeight="7" orient="auto-start-reverse">
            <polygon points="0,0 0,4 4,2 0,0"></polygon>
        </marker>
        <marker id="diamond" viewBox="-2 -2 8 8" refX="4" refY="2" markerWidth="7" markerHeight="7" orient="auto-start-reverse">
            <polygon points="0,2 2,0 4,2 2,4 0,2"></polygon>
        </marker>
        <marker id="circle" viewBox="0 0 8 8" refX="4" refY="4" markerWidth="7" markerHeight="7" orient="auto-start-reverse">
            <circle cx="4" cy="4" r="2" class="filled"></circle>
        </marker>
        <marker id="open_circle" viewBox="0 0 8 8" refX="4" refY="4" markerWidth="7" markerHeight="7" orient="auto-start-reverse">
            <circle cx="4" cy="4" r="2" class="bg_filled"></circle>
        </marker>
        <marker id="big_open_circle" viewBox="0 0 8 8" refX="4" refY="4" markerWidth="7" markerHeight="7" orient="auto-start-reverse">
            <circle cx="4" cy="4" r="3" class="bg_filled"></circle>
        </marker>
    </defs>
    <rect class="backdrop" x="0" y="0" width="704" height="320"></rect>
    <text x="338" y="44" >PoH</text>
    <text x="370" y="44" >Ser</text>
    <text x="402" y="44" >ice</text>
    <text x="434" y="60" >`</text>
    <text x="122" y="108" >TPU</text>
    <text x="146" y="140" >Fetch</text>
    <text x="234" y="140" >SigVerify</text>
    <text x="354" y="140" >Banking</text>
    <text x="458" y="140" >Broadcast</text>
    <text x="602" y="140" >Downstream</text>
    <text x="26" y="156" >Clients</text>
    <text x="146" y="156" >Stage</text>
    <text x="234" y="156" >Stage</text>
    <text x="354" y="156" >Stage</text>
    <text x="458" y="156" >Stage</text>
    <text x="602" y="156" >Validators</text>
    <text x="90" y="172" >`</text>
    <line x1="564" y1="160" x2="564" y2="208" class="solid"></line>
    <text x="194" y="188" >`</text>
    <text x="314" y="188" >`</text>
    <text x="418" y="188" >`</text>
    <text x="538" y="188" >`</text>
    <text x="690" y="188" >`</text>
    <text x="562" y="220" >`</text>
    <text x="370" y="284" >Bank</text>
    <text x="410" y="300" >`</text>
    <g>
        <path d="M 328,24 A 4,4 0,0,0 324,28" class="nofill"></path>
        <line x1="324" y1="28" x2="324" y2="52" class="solid"></line>
        <line x1="328" y1="24" x2="432" y2="24" class="solid"></line>
        <path d="M 432,24 A 4,4 0,0,1 436,28" class="nofill"></path>
        <line x1="436" y1="28" x2="436" y2="48" class="solid"></line>
        <path d="M 324,52 A 4,4 0,0,0 328,56" class="nofill"></path>
        <line x1="328" y1="56" x2="432" y2="56" class="solid"></line>
        <line x1="396" y1="56" x2="396" y2="100" class="solid"></line>
        <polygon points="392,100 400,100 396,112" class="filled"></polygon>
    </g>
    <g>
        <line x1="392" y1="32" x2="396" y2="48" class="solid"></line>
        <line x1="400" y1="32" x2="396" y2="48" class="solid"></line>
    </g>
    <g>
        <polygon points="352,76 356,64 360,76" class="filled"></polygon>
        <line x1="356" y1="76" x2="356" y2="120" class="solid"></line>
        <path d="M 344,120 A 4,4 0,0,0 340,124" class="nofill"></path>
        <line x1="340" y1="124" x2="340" y2="180" class="solid"></line>
        <line x1="344" y1="120" x2="416" y2="120" class="solid"></line>
        <path d="M 416,120 A 4,4 0,0,1 420,124" class="nofill"></path>
        <line x1="420" y1="124" x2="420" y2="176" class="solid"></line>
        <line x1="420" y1="152" x2="432" y2="152" class="solid"></line>
        <polygon points="432,148 440,152 432,156" class="filled"></polygon>
        <path d="M 340,180 A 4,4 0,0,0 344,184" class="nofill"></path>
        <line x1="344" y1="184" x2="416" y2="184" class="solid"></line>
        <line x1="380" y1="184" x2="380" y2="244" class="solid"></line>
        <polygon points="376,244 384,244 380,256" class="filled"></polygon>
    </g>
    <g>
        <path d="M 112,88 A 4,4 0,0,0 108,92" class="nofill"></path>
        <line x1="108" y1="92" x2="108" y2="144" class="solid"></line>
        <line x1="112" y1="88" x2="560" y2="88" class="solid"></line>
        <path d="M 560,88 A 4,4 0,0,1 564,92" class="nofill"></path>
        <line x1="564" y1="92" x2="564" y2="144" class="solid"></line>
    </g>
    <g>
        <path d="M 136,120 A 4,4 0,0,0 132,124" class="nofill"></path>
        <line x1="132" y1="124" x2="132" y2="180" class="solid"></line>
        <line x1="136" y1="120" x2="192" y2="120" class="solid"></line>
        <path d="M 192,120 A 4,4 0,0,1 196,124" class="nofill"></path>
        <line x1="196" y1="124" x2="196" y2="176" class="solid"></line>
        <line x1="196" y1="152" x2="208" y2="152" class="solid"></line>
        <polygon points="208,148 216,152 208,156" class="filled"></polygon>
        <path d="M 132,180 A 4,4 0,0,0 136,184" class="nofill"></path>
        <line x1="136" y1="184" x2="192" y2="184" class="solid"></line>
    </g>
    <g>
        <path d="M 224,120 A 4,4 0,0,0 220,124" class="nofill"></path>
        <line x1="220" y1="124" x2="220" y2="180" class="solid"></line>
        <line x1="224" y1="120" x2="312" y2="120" class="solid"></line>
        <path d="M 312,120 A 4,4 0,0,1 316,124" class="nofill"></path>
        <line x1="316" y1="124" x2="316" y2="176" class="solid"></line>
        <line x1="316" y1="152" x2="328" y2="152" class="solid"></line>
        <polygon points="328,148 336,152 328,156" class="filled"></polygon>
        <path d="M 220,180 A 4,4 0,0,0 224,184" class="nofill"></path>
        <line x1="224" y1="184" x2="312" y2="184" class="solid"></line>
    </g>
    <g>
        <path d="M 448,120 A 4,4 0,0,0 444,124" class="nofill"></path>
        <line x1="444" y1="124" x2="444" y2="180" class="solid"></line>
        <line x1="448" y1="120" x2="536" y2="120" class="solid"></line>
        <path d="M 536,120 A 4,4 0,0,1 540,124" class="nofill"></path>
        <line x1="540" y1="124" x2="540" y2="176" class="solid"></line>
        <line x1="540" y1="152" x2="576" y2="152" class="solid"></line>
        <polygon points="576,148 584,152 576,156" class="filled"></polygon>
        <path d="M 444,180 A 4,4 0,0,0 448,184" class="nofill"></path>
        <line x1="448" y1="184" x2="536" y2="184" class="solid"></line>
    </g>
    <g>
        <path d="M 592,120 A 4,4 0,0,0 588,124" class="nofill"></path>
        <line x1="588" y1="124" x2="588" y2="180" class="solid"></line>
        <line x1="592" y1="120" x2="688" y2="120" class="solid"></line>
        <path d="M 688,120 A 4,4 0,0,1 692,124" class="nofill"></path>
        <line x1="692" y1="124" x2="692" y2="176" class="solid"></line>
        <path d="M 588,180 A 4,4 0,0,0 592,184" class="nofill"></path>
        <line x1="592" y1="184" x2="688" y2="184" class="solid"></line>
    </g>
    <g>
        <path d="M 16,136 A 4,4 0,0,0 12,140" class="nofill"></path>
        <line x1="12" y1="140" x2="12" y2="164" class="solid"></line>
        <line x1="16" y1="136" x2="88" y2="136" class="solid"></line>
        <path d="M 88,136 A 4,4 0,0,1 92,140" class="nofill"></path>
        <line x1="92" y1="140" x2="92" y2="160" class="solid"></line>
        <line x1="92" y1="152" x2="120" y2="152" class="solid"></line>
        <polygon points="120,148 128,152 120,156" class="filled"></polygon>
        <path d="M 12,164 A 4,4 0,0,0 16,168" class="nofill"></path>
        <line x1="16" y1="168" x2="88" y2="168" class="solid"></line>
    </g>
    <g>
        <line x1="108" y1="160" x2="108" y2="212" class="solid"></line>
        <path d="M 108,212 A 4,4 0,0,0 112,216" class="nofill"></path>
        <line x1="112" y1="216" x2="560" y2="216" class="solid"></line>
    </g>
    <g>
        <path d="M 360,264 A 4,4 0,0,0 356,268" class="nofill"></path>
        <line x1="356" y1="268" x2="356" y2="292" class="solid"></line>
        <line x1="360" y1="264" x2="408" y2="264" class="solid"></line>
        <path d="M 408,264 A 4,4 0,0,1 412,268" class="nofill"></path>
        <line x1="412" y1="268" x2="412" y2="288" class="solid"></line>
        <path d="M 356,292 A 4,4 0,0,0 360,296" class="nofill"></path>
        <line x1="360" y1="296" x2="408" y2="296" class="solid"></line>
    </g>
</svg>