<svg xmlns="http://www.w3.org/2000/svg" width="608" height="496">
    <style>
        line, path, circle, rect, polygon{stroke:black;stroke-width:2;stroke-opacity:1;fill-opacity:1;stroke-linecap:round;stroke-linejoin:miter;}text{font-family:Iosevka Fixed, monospace;font-size:14px;}rect.backdrop{stroke:none;fill:white;}.broken{stroke-dasharray:8;}.filled{fill:black;}.bg_filled{fill:white;}.nofill{fill:white;}.end_marked_arrow{marker-end:url(#arrow);}.start_marked_arrow{marker-start:url(#arrow);}.end_marked_diamond{marker-end:url(#diamond);}.start_marked_diamond{marker-start:url(#diamond);}.end_marked_circle{marker-end:url(#circle);}.start_marked_circle{marker-start:url(#circle);}.end_marked_open_circle{marker-end:url(#open_circle);}.start_marked_open_circle{marker-start:url(#open_circle);}.end_marked_big_open_circle{marker-end:url(#big_open_circle);}.start_marked_big_open_circle{marker-start:url(#big_open_circle);}
        <!--separator-->
        
    </style>
    <defs>
        <marker id="arrow" viewBox="-2 -2 8 8" refX="4" refY="2" markerWidth="7" markerHeight="7" orient="auto-start-reverse">
            <polygon points="0,0 0,4 4,2 0,0"></polygon>
        </marker>
        <marker id="diamond" viewBox="-2 -2 8 8" refX="4" refY="2" markerWidth="7" markerHeight="7" orient="auto-start-reverse">
            <polygon points="0,2 2,0 4,2 2,4 0,2"></polygon>
        </marker>
        <marker id="circle" viewBox="0 0 8 8" refX="4" refY="4" markerWidth="7" markerHeight="7" orient="auto-start-reverse">
            <circle cx="4" cy="4" r="2" class="filled"></circle>
        </marker>
        <marker id="open_circle" viewBox="0 0 8 8" refX="4" refY="4" markerWidth="7" markerHeight="7" orient="auto-start-reverse">
            <circle cx="4" cy="4" r="2" class="bg_filled"></circle>
        </marker>
        <marker id="big_open_circle" viewBox="0 0 8 8" refX="4" refY="4" markerWidth="7" markerHeight="7" orient="auto-start-reverse">
            <circle cx="4" cy="4" r="3" class="bg_filled"></circle>
        </marker>
    </defs>
    <rect class="backdrop" x="0" y="0" width="608" height="496"></rect>
    <text x="130" y="28" >Validator</text>
    <line x1="108" y1="80" x2="108" y2="96" class="solid"></line>
    <text x="82" y="124" >`</text>
    <line x1="108" y1="112" x2="108" y2="416" class="solid"></line>
    <text x="290" y="124" >`</text>
    <text x="218" y="172" >Gossip</text>
    <text x="274" y="172" >Service</text>
    <text x="458" y="172" >Validators</text>
    <text x="338" y="188" >`</text>
    <line x1="428" y1="176" x2="428" y2="240" class="solid"></line>
    <text x="138" y="252" >Bank</text>
    <text x="226" y="252" >Replay</text>
    <text x="314" y="252" >ShredFetch</text>
    <text x="138" y="268" >Forks</text>
    <text x="226" y="268" >Stage</text>
    <text x="322" y="268" >Stage</text>
    <line x1="428" y1="256" x2="428" y2="416" class="solid"></line>
    <line x1="444" y1="256" x2="444" y2="416" class="solid"></line>
    <text x="186" y="284" >`</text>
    <text x="282" y="284" >`</text>
    <text x="402" y="284" >`</text>
    <text x="570" y="300" >`</text>
    <text x="266" y="348" >Blockstore</text>
    <text x="354" y="364" >`</text>
    <text x="146" y="428" >TPU</text>
    <text x="242" y="428" >Broadcast</text>
    <text x="178" y="444" >`</text>
    <text x="242" y="444" >Stage</text>
    <line x1="428" y1="432" x2="428" y2="464" class="solid"></line>
    <text x="570" y="444" >`</text>
    <text x="322" y="460" >`</text>
    <text x="594" y="460" >`</text>
    <text x="426" y="476" >`</text>
    <text x="26" y="92" >Client</text>
    <text x="146" y="92" >JSON</text>
    <text x="186" y="92" >RPC</text>
    <text x="218" y="92" >Service</text>
    <text x="482" y="252" >Upstream</text>
    <text x="482" y="268" >Validators</text>
    <text x="482" y="396" >Downstream</text>
    <text x="482" y="412" >Validators</text>
    <g>
        <path d="M 112,8 A 4,4 0,0,0 108,12" class="nofill"></path>
        <line x1="108" y1="12" x2="108" y2="64" class="solid"></line>
        <line x1="112" y1="8" x2="424" y2="8" class="solid"></line>
        <path d="M 424,8 A 4,4 0,0,1 428,12" class="nofill"></path>
        <line x1="428" y1="12" x2="428" y2="160" class="solid"></line>
    </g>
    <g>
        <path d="M 16,56 A 4,4 0,0,0 12,60" class="nofill"></path>
        <line x1="12" y1="60" x2="12" y2="116" class="solid"></line>
        <line x1="16" y1="56" x2="80" y2="56" class="solid"></line>
        <path d="M 80,56 A 4,4 0,0,1 84,60" class="nofill"></path>
        <line x1="84" y1="60" x2="84" y2="112" class="solid"></line>
        <line x1="84" y1="72" x2="120" y2="72" class="solid"></line>
        <polygon points="120,68 128,72 120,76" class="filled"></polygon>
        <path d="M 12,116 A 4,4 0,0,0 16,120" class="nofill"></path>
        <line x1="16" y1="120" x2="80" y2="120" class="solid"></line>
        <line x1="52" y1="120" x2="52" y2="420" class="solid"></line>
        <path d="M 52,420 A 4,4 0,0,0 56,424" class="nofill"></path>
        <line x1="56" y1="424" x2="120" y2="424" class="solid"></line>
        <polygon points="120,420 128,424 120,428" class="filled"></polygon>
    </g>
    <g>
        <path d="M 136,56 A 4,4 0,0,0 132,60" class="nofill"></path>
        <line x1="132" y1="60" x2="132" y2="116" class="solid"></line>
        <line x1="136" y1="56" x2="288" y2="56" class="solid"></line>
        <path d="M 288,56 A 4,4 0,0,1 292,60" class="nofill"></path>
        <line x1="292" y1="60" x2="292" y2="112" class="solid"></line>
        <path d="M 132,116 A 4,4 0,0,0 136,120" class="nofill"></path>
        <line x1="136" y1="120" x2="288" y2="120" class="solid"></line>
        <polygon points="96,100 88,104 96,108" class="filled"></polygon>
        <line x1="96" y1="104" x2="132" y2="104" class="solid"></line>
    </g>
    <g>
        <polygon points="152,140 156,128 160,140" class="filled"></polygon>
        <line x1="156" y1="140" x2="156" y2="232" class="solid"></line>
        <path d="M 128,232 A 4,4 0,0,0 124,236" class="nofill"></path>
        <line x1="124" y1="236" x2="124" y2="276" class="solid"></line>
        <line x1="128" y1="232" x2="184" y2="232" class="solid"></line>
        <path d="M 184,232 A 4,4 0,0,1 188,236" class="nofill"></path>
        <line x1="188" y1="236" x2="188" y2="272" class="solid"></line>
        <path d="M 124,276 A 4,4 0,0,0 128,280" class="nofill"></path>
        <line x1="128" y1="280" x2="184" y2="280" class="solid"></line>
    </g>
    <g>
        <path d="M 208,152 A 4,4 0,0,0 204,156" class="nofill"></path>
        <line x1="204" y1="156" x2="204" y2="180" class="solid"></line>
        <line x1="208" y1="152" x2="336" y2="152" class="solid"></line>
        <path d="M 336,152 A 4,4 0,0,1 340,156" class="nofill"></path>
        <line x1="340" y1="156" x2="340" y2="176" class="solid"></line>
        <path d="M 204,180 A 4,4 0,0,0 208,184" class="nofill"></path>
        <line x1="208" y1="184" x2="336" y2="184" class="solid"></line>
    </g>
    <g>
        <path d="M 448,152 A 4,4 0,0,0 444,156" class="nofill"></path>
        <line x1="444" y1="156" x2="444" y2="240" class="solid"></line>
        <line x1="448" y1="152" x2="592" y2="152" class="solid"></line>
        <path d="M 592,152 A 4,4 0,0,1 596,156" class="nofill"></path>
        <line x1="596" y1="156" x2="596" y2="448" class="solid"></line>
        <polygon points="352,164 344,168 352,172" class="filled"></polygon>
        <line x1="352" y1="168" x2="444" y2="168" class="solid"></line>
    </g>
    <g>
        <polygon points="248,204 252,192 256,204" class="filled"></polygon>
        <line x1="252" y1="204" x2="252" y2="232" class="solid"></line>
        <path d="M 216,232 A 4,4 0,0,0 212,236" class="nofill"></path>
        <line x1="212" y1="236" x2="212" y2="276" class="solid"></line>
        <line x1="216" y1="232" x2="280" y2="232" class="solid"></line>
        <path d="M 280,232 A 4,4 0,0,1 284,236" class="nofill"></path>
        <line x1="284" y1="236" x2="284" y2="272" class="solid"></line>
        <path d="M 212,276 A 4,4 0,0,0 216,280" class="nofill"></path>
        <line x1="216" y1="280" x2="280" y2="280" class="solid"></line>
        <polygon points="200,244 192,248 200,252" class="filled"></polygon>
        <line x1="200" y1="248" x2="212" y2="248" class="solid"></line>
    </g>
    <g>
        <path d="M 472,216 A 4,4 0,0,0 468,220" class="nofill"></path>
        <line x1="468" y1="220" x2="468" y2="292" class="solid"></line>
        <line x1="472" y1="216" x2="568" y2="216" class="solid"></line>
        <path d="M 568,216 A 4,4 0,0,1 572,220" class="nofill"></path>
        <line x1="572" y1="220" x2="572" y2="288" class="solid"></line>
        <path d="M 468,292 A 4,4 0,0,0 472,296" class="nofill"></path>
        <line x1="472" y1="296" x2="568" y2="296" class="solid"></line>
        <polygon points="416,244 408,248 416,252" class="filled"></polygon>
        <line x1="416" y1="248" x2="468" y2="248" class="solid"></line>
    </g>
    <g>
        <path d="M 304,232 A 4,4 0,0,0 300,236" class="nofill"></path>
        <line x1="300" y1="236" x2="300" y2="276" class="solid"></line>
        <line x1="304" y1="232" x2="400" y2="232" class="solid"></line>
        <path d="M 400,232 A 4,4 0,0,1 404,236" class="nofill"></path>
        <line x1="404" y1="236" x2="404" y2="272" class="solid"></line>
        <path d="M 300,276 A 4,4 0,0,0 304,280" class="nofill"></path>
        <line x1="304" y1="280" x2="400" y2="280" class="solid"></line>
        <line x1="324" y1="280" x2="324" y2="308" class="solid"></line>
        <polygon points="320,308 328,308 324,320" class="filled"></polygon>
    </g>
    <g>
        <polygon points="152,300 156,288 160,300" class="filled"></polygon>
        <line x1="156" y1="300" x2="156" y2="408" class="solid"></line>
        <path d="M 136,408 A 4,4 0,0,0 132,412" class="nofill"></path>
        <line x1="132" y1="412" x2="132" y2="436" class="solid"></line>
        <line x1="136" y1="408" x2="176" y2="408" class="solid"></line>
        <path d="M 176,408 A 4,4 0,0,1 180,412" class="nofill"></path>
        <line x1="180" y1="412" x2="180" y2="432" class="solid"></line>
        <line x1="180" y1="424" x2="216" y2="424" class="solid"></line>
        <polygon points="216,420 224,424 216,428" class="filled"></polygon>
        <path d="M 132,436 A 4,4 0,0,0 136,440" class="nofill"></path>
        <line x1="136" y1="440" x2="176" y2="440" class="solid"></line>
    </g>
    <g>
        <polygon points="272,300 276,288 280,300" class="filled"></polygon>
        <line x1="276" y1="300" x2="276" y2="328" class="solid"></line>
        <path d="M 256,328 A 4,4 0,0,0 252,332" class="nofill"></path>
        <line x1="252" y1="332" x2="252" y2="356" class="solid"></line>
        <line x1="256" y1="328" x2="352" y2="328" class="solid"></line>
        <path d="M 352,328 A 4,4 0,0,1 356,332" class="nofill"></path>
        <line x1="356" y1="332" x2="356" y2="352" class="solid"></line>
        <path d="M 252,356 A 4,4 0,0,0 256,360" class="nofill"></path>
        <line x1="256" y1="360" x2="352" y2="360" class="solid"></line>
    </g>
    <g>
        <path d="M 472,360 A 4,4 0,0,0 468,364" class="nofill"></path>
        <line x1="468" y1="364" x2="468" y2="436" class="solid"></line>
        <line x1="472" y1="360" x2="568" y2="360" class="solid"></line>
        <path d="M 568,360 A 4,4 0,0,1 572,364" class="nofill"></path>
        <line x1="572" y1="364" x2="572" y2="432" class="solid"></line>
        <path d="M 468,436 A 4,4 0,0,0 472,440" class="nofill"></path>
        <line x1="472" y1="440" x2="568" y2="440" class="solid"></line>
    </g>
    <g>
        <polygon points="288,380 292,368 296,380" class="filled"></polygon>
        <line x1="292" y1="380" x2="292" y2="408" class="solid"></line>
        <path d="M 232,408 A 4,4 0,0,0 228,412" class="nofill"></path>
        <line x1="228" y1="412" x2="228" y2="452" class="solid"></line>
        <line x1="232" y1="408" x2="320" y2="408" class="solid"></line>
        <path d="M 320,408 A 4,4 0,0,1 324,412" class="nofill"></path>
        <line x1="324" y1="412" x2="324" y2="448" class="solid"></line>
        <line x1="324" y1="424" x2="456" y2="424" class="solid"></line>
        <polygon points="456,420 464,424 456,428" class="filled"></polygon>
        <path d="M 228,452 A 4,4 0,0,0 232,456" class="nofill"></path>
        <line x1="232" y1="456" x2="320" y2="456" class="solid"></line>
    </g>
    <g>
        <line x1="108" y1="432" x2="108" y2="468" class="solid"></line>
        <path d="M 108,468 A 4,4 0,0,0 112,472" class="nofill"></path>
        <line x1="112" y1="472" x2="424" y2="472" class="solid"></line>
    </g>
    <g>
        <line x1="444" y1="432" x2="444" y2="452" class="solid"></line>
        <path d="M 444,452 A 4,4 0,0,0 448,456" class="nofill"></path>
        <line x1="448" y1="456" x2="592" y2="456" class="solid"></line>
    </g>
</svg>