<svg width="16" height="16" viewBox="0 0 16 16" fill="none" xmlns="http://www.w3.org/2000/svg">
<path d="M6.96678 4.97998C6.84011 4.97998 6.71342 4.93333 6.61342 4.83333L4.48676 2.70667L2.36009 4.83333C2.16675 5.02667 1.84676 5.02667 1.65342 4.83333C1.46009 4.64 1.46009 4.32 1.65342 4.12667L4.13344 1.64665C4.22678 1.55331 4.35342 1.5 4.48676 1.5C4.62009 1.5 4.74678 1.55331 4.84011 1.64665L7.32009 4.12667C7.51342 4.32 7.51342 4.64 7.32009 4.83333C7.22009 4.93333 7.09344 4.97998 6.96678 4.97998Z" fill="#E7E8EB"/>
<path d="M4.48669 14.5C4.21336 14.5 3.98669 14.2733 3.98669 14V2C3.98669 1.72667 4.21336 1.5 4.48669 1.5C4.76003 1.5 4.98669 1.72667 4.98669 2V14C4.98669 14.2733 4.76003 14.5 4.48669 14.5Z" fill="#E7E8EB"/>
<path d="M11.52 14.5001C11.3866 14.5001 11.2599 14.4467 11.1666 14.3534L8.68663 11.8734C8.49329 11.6801 8.49329 11.3601 8.68663 11.1667C8.87996 10.9734 9.19996 10.9734 9.39329 11.1667L11.52 13.2934L13.6466 11.1667C13.8399 10.9734 14.16 10.9734 14.3533 11.1667C14.5466 11.3601 14.5466 11.6801 14.3533 11.8734L11.8733 14.3534C11.7799 14.4467 11.6466 14.5001 11.52 14.5001Z" fill="#E7E8EB"/>
<path d="M11.5133 14.5C11.24 14.5 11.0133 14.2733 11.0133 14V2C11.0133 1.72667 11.24 1.5 11.5133 1.5C11.7866 1.5 12.0133 1.72667 12.0133 2V14C12.0133 14.2733 11.7933 14.5 11.5133 14.5Z" fill="#E7E8EB"/>
</svg>
