<svg id="Layer_1" data-name="Layer 1" xmlns="http://www.w3.org/2000/svg" xmlns:xlink="http://www.w3.org/1999/xlink" viewBox="0 0 64 64"><defs><style>.cls-1{fill:none;}.cls-2{clip-path:url(#clip-path);}.cls-3{fill:#a6c136;}.cls-4{fill:#7b2e5a;}</style><clipPath id="clip-path"><circle class="cls-1" cx="32" cy="32" r="32"/></clipPath></defs><g class="cls-2"><rect class="cls-3" x="-4.1" y="-1" width="66" height="66"/><polygon class="cls-4" points="25.81 -1 18.8 -1 18.8 42.1 61.9 42.1 61.9 35.1 25.81 35.1 25.81 -1"/><polygon class="cls-4" points="-0.59 -1 -4.1 -1 -4.1 65 61.9 65 61.9 61.5 -0.59 61.5 -0.59 -1"/><polygon class="cls-4" points="12.61 -1 5.6 -1 5.6 55.3 61.9 55.3 61.9 48.3 12.61 48.3 12.61 -1"/><rect class="cls-4" x="58.4" y="-1" width="3.5" height="3.5"/><polygon class="cls-4" points="39.01 -1 32 -1 32 28.9 61.9 28.9 61.9 21.9 39.01 21.9 39.01 -1"/><polygon class="cls-4" points="52.21 -1 45.2 -1 45.2 15.7 61.9 15.7 61.9 8.7 52.21 8.7 52.21 -1"/></g></svg>