<svg id="Layer_1" data-name="Layer 1" xmlns="http://www.w3.org/2000/svg" xmlns:xlink="http://www.w3.org/1999/xlink" viewBox="0 0 64 64"><defs><style>.cls-1{fill:none;}.cls-2{clip-path:url(#clip-path);}.cls-3{fill:#4b74bd;}.cls-4{fill:#fda250;}</style><clipPath id="clip-path"><circle class="cls-1" cx="32" cy="32" r="32"/></clipPath></defs><g class="cls-2"><rect class="cls-3" x="32" y="32" width="33" height="33"/><path class="cls-4" d="M32,40.25h8.25V32Zm0,8.25h8.25V40.25Zm0,8.25h8.25V48.5ZM32,65h8.25V56.75Zm8.25-24.75H48.5V32ZM48.5,48.5V40.25L40.25,48.5Zm0,0-8.25,8.25H48.5ZM40.25,65H48.5V56.75Zm16.5-33L48.5,40.25h8.25Zm0,16.5V40.25L48.5,48.5Zm0,8.25V48.5L48.5,56.75ZM48.5,65h8.25V56.75ZM65,32l-8.25,8.25H65Zm0,16.5V40.25L56.75,48.5Zm0,8.25V48.5l-8.25,8.25ZM65,65V56.75L56.75,65Z"/><rect class="cls-3" x="-1" y="32" width="33" height="33"/><path class="cls-4" d="M-1,40.25H7.25V32Zm0,8.25H7.25V40.25Zm0,8.25H7.25V48.5ZM-1,65H7.25V56.75ZM7.25,40.25H15.5V32ZM15.5,48.5V40.25L7.25,48.5Zm0,0L7.25,56.75H15.5ZM7.25,65H15.5V56.75Zm16.5-33L15.5,40.25h8.25Zm0,16.5V40.25L15.5,48.5Zm0,8.25V48.5L15.5,56.75ZM15.5,65h8.25V56.75ZM32,32l-8.25,8.25H32Zm0,16.5V40.25L23.75,48.5Zm0,8.25V48.5l-8.25,8.25ZM32,65V56.75L23.75,65Z"/><rect class="cls-3" x="32" y="-1" width="33" height="33"/><path class="cls-4" d="M32,7.25h8.25V-1Zm0,8.25h8.25V7.25Zm0,8.25h8.25V15.5ZM32,32h8.25V23.75ZM40.25,7.25H48.5V-1ZM48.5,15.5V7.25L40.25,15.5Zm0,0-8.25,8.25H48.5ZM40.25,32H48.5V23.75ZM56.75-1,48.5,7.25h8.25Zm0,16.5V7.25L48.5,15.5Zm0,8.25V15.5L48.5,23.75ZM48.5,32h8.25V23.75ZM65-1,56.75,7.25H65Zm0,16.5V7.25L56.75,15.5Zm0,8.25V15.5l-8.25,8.25ZM65,32V23.75L56.75,32Z"/><rect class="cls-3" x="-1" y="-1" width="33" height="33"/><path class="cls-4" d="M-1,7.25H7.25V-1Zm0,8.25H7.25V7.25Zm0,8.25H7.25V15.5ZM-1,32H7.25V23.75ZM7.25,7.25H15.5V-1ZM15.5,15.5V7.25L7.25,15.5Zm0,0L7.25,23.75H15.5ZM7.25,32H15.5V23.75ZM23.75-1,15.5,7.25h8.25Zm0,16.5V7.25L15.5,15.5Zm0,8.25V15.5L15.5,23.75ZM15.5,32h8.25V23.75ZM32-1,23.75,7.25H32Zm0,16.5V7.25L23.75,15.5Zm0,8.25V15.5l-8.25,8.25ZM32,32V23.75L23.75,32Z"/></g></svg>