<svg id="Layer_1" data-name="Layer 1" xmlns="http://www.w3.org/2000/svg" xmlns:xlink="http://www.w3.org/1999/xlink" viewBox="0 0 64 64"><defs><style>.cls-1{fill:none;}.cls-2{clip-path:url(#clip-path);}.cls-3{fill:#f3ecc8;}.cls-4{fill:#e7a729;}</style><clipPath id="clip-path"><circle class="cls-1" cx="32" cy="32" r="32"/></clipPath></defs><g class="cls-2"><rect class="cls-3" x="-1" y="-1" width="66" height="66"/><polygon class="cls-4" points="65 15.7 65 8.7 8.7 65 15.7 65 65 15.7"/><polygon class="cls-4" points="65 28.9 65 21.9 21.9 65 28.9 65 65 28.9"/><polygon class="cls-4" points="48.3 -1 -1 48.3 -1 55.3 55.3 -1 48.3 -1"/><polygon class="cls-4" points="35.1 -1 -1 35.1 -1 42.1 42.1 -1 35.1 -1"/><polygon class="cls-4" points="-1 -1 -1 2.5 2.5 -1 -1 -1"/><polygon class="cls-4" points="65 42.1 65 35.1 35.1 65 42.1 65 65 42.1"/><polygon class="cls-4" points="8.7 -1 -1 8.7 -1 15.7 15.7 -1 8.7 -1"/><polygon class="cls-4" points="21.9 -1 -1 21.9 -1 28.9 28.9 -1 21.9 -1"/><polygon class="cls-4" points="65 55.3 65 48.3 48.3 65 55.3 65 65 55.3"/><polygon class="cls-4" points="65 61.5 61.5 65 65 65 65 61.5"/><polygon class="cls-4" points="65 -1 61.5 -1 -1 61.5 -1 65 2.5 65 65 2.5 65 -1"/></g></svg>