<svg id="Layer_1" data-name="Layer 1" xmlns="http://www.w3.org/2000/svg" xmlns:xlink="http://www.w3.org/1999/xlink" viewBox="0 0 64 64"><defs><style>.cls-1{fill:none;}.cls-2{clip-path:url(#clip-path);}.cls-3{fill:#0f3677;}.cls-4{fill:#f6423c;}</style><clipPath id="clip-path"><circle class="cls-1" cx="32" cy="32" r="32"/></clipPath></defs><g class="cls-2"><rect class="cls-3" x="-1" y="-1" width="66" height="66"/><polygon class="cls-4" points="65 65 48.5 48.5 65 32 65 65"/><polygon class="cls-4" points="-1 -1 15.5 15.5 -1 32 -1 -1"/><polygon class="cls-4" points="15.5 65 -1 48.5 15.5 32 15.5 -1 32 15.5 15.5 32 15.5 65"/><polygon class="cls-4" points="15.5 48.5 32 32 32 -1 48.5 15.5 32 32 32 65 15.5 48.5"/><polygon class="cls-4" points="48.5 -1 65 15.5 48.5 32 48.5 65 32 48.5 48.5 32 48.5 -1"/></g></svg>