<svg id="Layer_1" data-name="Layer 1" xmlns="http://www.w3.org/2000/svg" xmlns:xlink="http://www.w3.org/1999/xlink" viewBox="0 0 64 64"><defs><style>.cls-1{fill:none;}.cls-2{clip-path:url(#clip-path);}.cls-3{fill:#f96c21;}.cls-4{fill:#2dc6be;}</style><clipPath id="clip-path"><circle class="cls-1" cx="32" cy="32" r="32"/></clipPath></defs><g class="cls-2"><rect class="cls-3" x="-1" y="-1" width="66" height="66"/><polygon class="cls-4" points="-1 35.1 -1 42.1 42.1 42.1 42.1 -1 35.1 -1 35.1 35.1 -1 35.1"/><polygon class="cls-4" points="-1 61.5 -1 65 65 65 65 -1 61.5 -1 61.5 61.5 -1 61.5"/><polygon class="cls-4" points="-1 48.3 -1 55.3 55.3 55.3 55.3 -1 48.3 -1 48.3 48.3 -1 48.3"/><rect class="cls-4" x="-1" y="-1" width="3.5" height="3.5"/><polygon class="cls-4" points="-1 21.9 -1 28.9 28.9 28.9 28.9 -1 21.9 -1 21.9 21.9 -1 21.9"/><polygon class="cls-4" points="-1 8.7 -1 15.7 15.7 15.7 15.7 -1 8.7 -1 8.7 8.7 -1 8.7"/></g></svg>