<svg width="16" height="16" viewBox="0 0 16 16" fill="none" xmlns="http://www.w3.org/2000/svg">
<path d="M15.5 1V5.5C15.5 5.77637 15.2764 6 15 6C14.7236 6 14.5 5.77637 14.5 5.5V2.207L7.3535 9.3535C7.25588 9.45113 7.12787 9.5 7 9.5C6.87213 9.5 6.74412 9.45113 6.6465 9.3535C6.45113 9.15812 6.45113 8.84175 6.6465 8.6465L13.793 1.5H10.5C10.2236 1.5 10 1.27637 10 1C10 0.723625 10.2236 0.5 10.5 0.5H15C15.2764 0.5 15.5 0.723625 15.5 1ZM13.5 14V8C13.5 7.72363 13.2764 7.5 13 7.5C12.7236 7.5 12.5 7.72363 12.5 8V14C12.5 14.2759 12.2759 14.5 12 14.5H2C1.72413 14.5 1.5 14.2759 1.5 14V4C1.5 3.72412 1.72413 3.5 2 3.5H8C8.27637 3.5 8.5 3.27638 8.5 3C8.5 2.72362 8.27637 2.5 8 2.5H2C1.17287 2.5 0.5 3.17287 0.5 4V14C0.5 14.8271 1.17287 15.5 2 15.5H12C12.8271 15.5 13.5 14.8271 13.5 14Z" fill="#9B59B6"/>
</svg>
