<svg width="25" height="24" viewBox="0 0 25 24" fill="none" xmlns="http://www.w3.org/2000/svg">
<g clip-path="url(#clip0_6_186)">
<path d="M12.902 24C14.0869 23.9995 15.2482 23.6691 16.2558 23.0458C17.2635 22.4225 18.0776 21.531 18.6071 20.471C19.1366 19.411 19.3604 18.2246 19.2535 17.0445C19.1467 15.8645 18.7133 14.7376 18.002 13.79C17.2686 12.8246 16.2771 12.0862 15.142 11.66V2.27L12.902 0L10.662 2.27V3.72L11.482 4.54L10.662 5.38V7.16L11.402 7.9L10.662 8.66V11.66C9.66739 12.0352 8.78248 12.6534 8.08794 13.4583C7.39341 14.2631 6.91134 15.2289 6.68568 16.2678C6.46001 17.3066 6.49793 18.3854 6.79597 19.4059C7.09402 20.4263 7.64271 21.3559 8.39204 22.11C8.98189 22.707 9.68409 23.1814 10.4581 23.5058C11.2322 23.8301 12.0628 23.9981 12.902 24Z" fill="#C49BD6"/>
<path d="M12.902 19.66V24C12.0649 24.0021 11.2355 23.8388 10.4616 23.5196C9.68768 23.2004 8.98437 22.7316 8.39204 22.14C7.62888 21.3868 7.06821 20.4531 6.76199 19.4255C6.45577 18.3979 6.41391 17.3096 6.64028 16.2615C6.86665 15.2134 7.35394 14.2394 8.05697 13.4298C8.76001 12.6202 9.65605 12.0011 10.662 11.63V8.63L11.402 7.87L10.662 7.13V5.38L11.482 4.54L10.662 3.72V2.27L12.902 0V19.66Z" fill="#9B59B6"/>
<path d="M10.902 18C10.902 17.6044 11.0193 17.2178 11.2391 16.8889C11.4589 16.56 11.7712 16.3036 12.1367 16.1522C12.5021 16.0009 12.9043 15.9613 13.2922 16.0384C13.6802 16.1156 14.0365 16.3061 14.3163 16.5858C14.596 16.8655 14.7864 17.2219 14.8636 17.6098C14.9408 17.9978 14.9012 18.3999 14.7498 18.7654C14.5984 19.1308 14.3421 19.4432 14.0132 19.6629C13.6843 19.8827 13.2976 20 12.902 20C12.3716 20 11.8629 19.7893 11.4878 19.4142C11.1128 19.0391 10.902 18.5304 10.902 18Z" fill="white"/>
</g>
<defs>
<clipPath id="clip0_6_186">
<rect width="24" height="24" fill="white" transform="translate(0.902039)"/>
</clipPath>
</defs>
</svg>
