<svg width="20" height="22" viewBox="0 0 20 22" fill="none" xmlns="http://www.w3.org/2000/svg">
<mask id="mask0_58_763" style="mask-type:alpha" maskUnits="userSpaceOnUse" x="1" y="0" width="18" height="22">
<path d="M2.5 17V20H17.5V17H19V20L18.9931 20.1439C18.9201 20.9021 18.2765 21.5 17.5 21.5H2.5C1.675 21.5 1 20.825 1 20V17H2.5ZM10 0.5L17.5 8L16.45 9.05L10.75 3.35V17.75H9.25V3.35L3.55 9.05L2.5 8L10 0.5Z" fill="white"/>
</mask>
<g mask="url(#mask0_58_763)">
<path d="M2.5 17V20H17.5V17H19V20L18.9931 20.1439C18.9201 20.9021 18.2765 21.5 17.5 21.5H2.5C1.675 21.5 1 20.825 1 20V17H2.5ZM10 0.5L17.5 8L16.45 9.05L10.75 3.35V17.75H9.25V3.35L3.55 9.05L2.5 8L10 0.5Z" fill="white"/>
</g>
</svg>
