<svg width="17" height="16" viewBox="0 0 17 16" fill="none" xmlns="http://www.w3.org/2000/svg">
<path fill-rule="evenodd" clip-rule="evenodd" d="M15.8368 11.7015V15.0291C15.8368 15.2727 15.9941 15.7641 15.8368 15.9257C15.6742 16.0927 15.1928 15.926 14.9413 15.926H0.900663C0.640794 15.926 0.00436401 15.9257 0.00436401 15.9257C0.00436401 15.9257 0.00436401 15.2644 0.00436401 15.0291V3.3237C0.00436401 3.09266 0.00436401 2.42599 0.00436401 2.42599C0.00436401 2.42599 0.636152 2.42599 0.900663 2.42599H14.9413C15.1994 2.42599 15.6734 2.25111 15.8368 2.42599C15.9866 2.58644 15.8368 3.08626 15.8368 3.3237V6.56416" fill="#9B59B6"/>
<path fill-rule="evenodd" clip-rule="evenodd" d="M0.00470613 2.42599L13.7783 0L14.7363 2.42599C14.7363 2.42599 -0.263346 2.52845 0.00470613 2.42599Z" fill="#C49BD6"/>
<path fill-rule="evenodd" clip-rule="evenodd" d="M16.5793 6.60187C16.6632 6.60187 16.9021 6.60187 16.9021 6.60187C16.9021 6.60187 16.9021 6.83096 16.9021 6.92625V11.2966C16.9021 11.3913 16.9021 11.6193 16.9021 11.6193C16.9021 11.6193 16.6634 11.6193 16.5793 11.6193H11.9498C10.5678 11.6193 9.44739 10.4961 9.44739 9.11059C9.44739 7.72589 10.5678 6.60187 11.9498 6.60187H16.5793Z" fill="#C49BD6"/>
<path fill-rule="evenodd" clip-rule="evenodd" d="M12.6957 9.62725H11.8788C11.6531 9.62725 11.4708 9.44369 11.4708 9.21821C11.4708 8.99106 11.6531 8.8075 11.8788 8.8075H12.6957C12.9206 8.8075 13.1037 8.99106 13.1037 9.21821C13.1037 9.44369 12.9206 9.62725 12.6957 9.62725Z" fill="white"/>
</svg>
